<svg xmlns="http://www.w3.org/2000/svg" viewBox="0 0 64 64">
  <path
    fill="#aa3bff"
    d="M48 54H12C6.478 54 2 49.523 2 44s4.478-10 10-10c.553 0 1-.447 1-1 0-.551-.444-.996-.995-.998h.015C12.013 32.002 12.007 32 12 32c-.771 0-1.521.08-2.251.219C8.673 31.135 8 29.648 8 28c0-3.314 2.687-6 6-6 1.657 0 3.157.672 4.243 1.758 0 0 1.007.992 1.757.244.75-.75-.343-1.658-.343-1.658-.626-.625-1.359-1.141-2.163-1.531h.006C20.275 14.451 26.614 10 34 10c8.72 0 15.988 6.199 17.644 14.432l.011.004C50.479 24.16 49.26 24 48 24c-.553 0-1 .447-1 1s.447 1 1 1c7.732 0 14 6.268 14 14 0 7.73-6.268 14-14 14z"
  />
</svg>