<svg width="220" height="80" viewBox="0 0 220 80" fill="none" xmlns="http://www.w3.org/2000/svg">

  <path d="M60 55H30C20 55 12 47 12 37C12 27 20 19 30 19C32 19 34 19.3 36 20C40 13 47 9 55 9C66 9 75 17 77 28C78 28 79 28 80 28C91 28 100 37 100 48C100 59 91 68 80 68H60" 
        stroke="white" 
        stroke-width="2.5" 
        stroke-linecap="round" 
        stroke-linejoin="round"/>


  <circle cx="82" cy="20" r="5" stroke="white" stroke-width="2"/>

  <g stroke="white" stroke-width="2" stroke-linecap="round">
    <line x1="82" y1="10" x2="82" y2="6"/>
    <line x1="82" y1="30" x2="82" y2="34"/>
    <line x1="72" y1="20" x2="68" y2="20"/>
    <line x1="92" y1="20" x2="96" y2="20"/>
    <line x1="75" y1="13" x2="72" y2="10"/>
    <line x1="89" y1="27" x2="92" y2="30"/>
    <line x1="75" y1="27" x2="72" y2="30"/>
    <line x1="89" y1="13" x2="92" y2="10"/>
  </g>


  <text x="110" y="32" fill="white" font-size="14" font-family="Arial, sans-serif" font-weight="600">
    WEATHER
  </text>
  <text x="110" y="52" fill="white" font-size="14" font-family="Arial, sans-serif" font-weight="600">
    GUESSER
  </text>
</svg>